# xmcd
#
# Track frame offsets:
#	150
#	10755
#	24042
#	35232
#	46875
#	58812
#	69605
#	80607
#	93267
#	105025
#	117097
#	128952
#	141572
#	153292
#	165172
#	175020
#	185250
#	196215
#	206895
#	218695
#	229835
#	239642
#	250662
#	262147
#	273857
#	285655
#	297782
#	309520
#
# Disc length: 4270 seconds
#
# Revision: 4
# Processed by: cddbd v1.5.2PL0 Copyright (c) Steve Scherf et al.
# Submitted via: audiograbber 1.83.01
#
DISCID=8710ac1c
DTITLE=Acuff, Roy - The King Of Country Music - CD2
DYEAR=1993
DGENRE=Country
TTITLE0=That's What Makes The Jukebox Play
TTITLE1=Little Moses
TTITLE2=What Do You Think About Me
TTITLE3=Oh Those Tombs
TTITLE4=Come Back Little Pal
TTITLE5=Fire Ball Mail
TTITLE6=I'm Building A Home (In The Sky)
TTITLE7=The Great Titanic
TTITLE8=Goddbye Mr. Brown (& Kitty Wells)
TTITLE9=Mother Hold Me Tight (& Kitty Wells)
TTITLE10=Crazy Worried Mind
TTITLE11=Along The China Coast
TTITLE12=It's Hard To Love
TTITLE13=Plant Some Flowers By My Graveside
TTITLE14=I Wanta Be Loved
TTITLE15=I Like Mountain Music
TTITLE16=Jesus Died For Me
TTITLE17=Thank God
TTITLE18=Were You There When They Crucified My Lord
TTITLE19=How Beautiful Heaven Must Be
TTITLE20=The Unclouded Day
TTITLE21=Hold To God's Unchanging Hand
TTITLE22=Lord Build Me A Cabin
TTITLE23=Where The Soul Never Dies
TTITLE24=Shake My Mother's Hand For Me
TTITLE25=Take My Hand, Precious Lord
TTITLE26=This World Is Not My Home
TTITLE27=Where Could I Go (But To My Lord)
EXTD=YEAR: 1993
EXTT0=
EXTT1=
EXTT2=
EXTT3=
EXTT4=
EXTT5=
EXTT6=
EXTT7=
EXTT8=
EXTT9=
EXTT10=
EXTT11=
EXTT12=
EXTT13=
EXTT14=
EXTT15=
EXTT16=
EXTT17=
EXTT18=
EXTT19=
EXTT20=
EXTT21=
EXTT22=
EXTT23=
EXTT24=
EXTT25=
EXTT26=
EXTT27=
PLAYORDER=
